<svg xmlns="http://www.w3.org/2000/svg" viewBox="0 0 1287.44 1310.36"><defs><style>.cls-1{fill:#5151c4;stroke:#fff;stroke-miterlimit:10;}.cls-2{fill:#fff;}</style></defs><title>doublen987-logo-3</title><g id="Layer_1" data-name="Layer 1"><rect class="cls-1" x="0.5" y="0.5" width="1286.44" height="1309.36"/></g><g id="Layer_2" data-name="Layer 2"><path class="cls-2" d="M64.37,1271.48a52.86,52.86,0,0,1-52.85-52.85V78.29A52.86,52.86,0,0,1,90.8,32.52l987.56,570.17a52.85,52.85,0,1,1-52.85,91.54L117.22,169.83v957.26L377.79,976.65a52.85,52.85,0,1,1,52.85,91.54L90.8,1264.4A52.83,52.83,0,0,1,64.37,1271.48Z" transform="translate(4.98 13.5)"/><path class="cls-2" d="M1227.15,1271.48a52.83,52.83,0,0,1-26.43-7.08L213.15,694.23A52.85,52.85,0,1,1,266,602.69l908.29,524.4V169.83L913.73,320.27a52.85,52.85,0,0,1-52.86-91.54L1200.72,32.52A52.86,52.86,0,0,1,1280,78.29V1218.63a52.86,52.86,0,0,1-52.85,52.85Z" transform="translate(4.98 13.5)"/></g></svg>