<svg viewBox="0 0 500 500" xmlns="http://www.w3.org/2000/svg">
  <defs></defs>
  <title>flashcards-app-logo</title>
  <g class="cls-1" transform="matrix(0.54881, 0, 0, 0.54881, 4.360898, 4.542355)" style="isolation: isolate;">
    <g id="Layer_1" data-name="Layer 1">
      <circle class="cls-2" cx="450.17" cy="450.13" r="450" style="fill: rgb(255, 56, 65);"></circle>
      <path class="cls-3" d="M413.11,158.14a1.5,1.5,0,0,0,0-3,1.5,1.5,0,0,0,0,3Z" transform="translate(0 0)" style="fill: rgb(204, 204, 204);"></path>
      <g class="cls-4" style="mix-blend-mode: multiply; opacity: 0.44;">
        <path class="cls-3" d="M575,816.8C326.5,815.07,126.43,612.21,128.16,363.68c.9-129.36,56.31-245.59,144.28-327.07C113.33,105.08,1.42,262.73.14,447-1.59,695.56,198.48,898.43,447,900.15A448.43,448.43,0,0,0,755.85,780.36,448.35,448.35,0,0,1,575,816.8Z" transform="translate(0 0)" style="fill: rgb(204, 204, 204);"></path>
      </g>
      <g class="cls-4" style="mix-blend-mode: multiply; opacity: 0.44;">
        <path class="cls-3" d="M575.18,83.55A448.31,448.31,0,0,1,756,120.13,448.37,448.37,0,0,0,447.22.1C198.7,1.63-1.52,204.34,0,452.87c1.14,184.3,112.92,342,272,410.63C184.08,782,128.76,665.68,128,536.32,126.43,287.79,326.66,85.08,575.18,83.55Z" transform="translate(0 0)" style="fill: rgb(204, 204, 204);"></path>
      </g>
      <g class="cls-4" style="mix-blend-mode: multiply; opacity: 0.44;">
        <path class="cls-3" d="M831.82,211.18C699.89.56,422.2-63.23,211.58,68.7,55.39,166.54-20.06,344.54,5.19,515.91c23.18-117.65,93-225.82,202.65-294.49C418.46,89.49,696.15,153.28,828.08,363.9a448.46,448.46,0,0,1,63.91,173A448.43,448.43,0,0,0,831.82,211.18Z" transform="translate(0 0)" style="fill: rgb(204, 204, 204);"></path>
      </g>
      <g class="cls-4" style="mix-blend-mode: multiply; opacity: 0.44;">
        <path class="cls-3" d="M897.09,396.66A448.73,448.73,0,0,1,686.33,685.4c-214.21,126-490,54.52-616-159.69A448.46,448.46,0,0,1,11.23,351,448.38,448.38,0,0,0,62.3,678.26C188.32,892.48,464.13,964,678.34,838,837.2,744.5,917.56,568.66,897.09,396.66Z" transform="translate(0 0)" style="fill: rgb(204, 204, 204);"></path>
      </g>
      <g class="cls-4" style="mix-blend-mode: multiply; opacity: 0.44;">
        <path class="cls-3" d="M451.71.56A448.38,448.38,0,0,0,143.59,122.2a448.41,448.41,0,0,1,180.6-37.52C572.72,84.91,774,286.57,773.76,535.1A448.71,448.71,0,0,1,631.46,863c158.69-69.42,269.65-227.74,269.82-412C901.52,202.45,700.24.79,451.71.56Z" transform="translate(0 0)" style="fill: rgb(204, 204, 204);"></path>
      </g>
      <g class="cls-4" style="mix-blend-mode: multiply; opacity: 0.44;">
        <path class="cls-3" d="M900.19,446.84c-1.38-184.31-113.37-341.9-272.52-410.28a448.72,448.72,0,0,1,144.45,327C774,612.08,574,815.05,325.51,816.92a448.54,448.54,0,0,1-180.84-36.34A448.47,448.47,0,0,0,453.58,900.2C702.1,898.34,902.05,695.36,900.19,446.84Z" transform="translate(0 0)" style="fill: rgb(204, 204, 204);"></path>
      </g>
      <rect class="cls-5" x="509.99" y="302.16" width="137.08" height="247.22" rx="31.85" transform="matrix(0.87, 0.5, -0.5, 0.87, 290.39, -232.22)" style="fill: rgb(193, 12, 12);"></rect>
      <text class="cls-6" transform="matrix(0.848603, 0.529031, -0.529031, 0.848603, 515.432861, 417.477936)" style="white-space: pre; fill: rgb(255, 255, 255); font-family: BerlinSansFBDemi-Bold, &quot;Berlin Sans FB Demi&quot;; font-size: 85.8px; font-weight: 700; line-height: 277.312px; perspective-origin: 450.641px 0px;">&lt;/&gt;</text>
      <rect class="cls-7" x="278.21" y="278.17" width="227.24" height="375.89" rx="43.01" transform="translate(-142.63 174.32) rotate(-21.32)" style="fill: rgb(191, 43, 43);"></rect>
      <path class="cls-8" d="M277.58,378.16c.77-6.26,1.61-14.92,7.31-18.82,1.9-1.3,4.91-2.4,7.19-1.41,2.57,1.11,4.09,4.76,6.16,6.56,4.71,4.11,10.76,3.95,16.15,1.37,3.87-1.85,8.4-6.6,12.9-6.33,3,.18,5.74,2.22,8.89,2.36a21.17,21.17,0,0,0,9.76-2.17c7-3.15,12.25-7.59,20-8.88,13.64-2.28,29.74-2.08,37.13-16.18,3.55-6.78-6.72-12.8-10.28-6s-11.24,8.36-18.14,9.24c-7.91,1-15.79,1.41-23.08,4.95-5.94,2.89-11.06,8.63-18,6.26-6.58-2.25-11.68-1.48-17.71,2-2.44,1.41-4.84,3.57-7.53,4.48-2.36.8-2.76-.45-4.3-2.37-4.17-5.2-9.38-8.13-16.2-7.32-16.39,1.95-20.5,18.5-22.21,32.27-.94,7.58,11,7.51,11.91,0Z" transform="translate(0 0)" style="fill: rgb(255, 255, 255);"></path>
      <path class="cls-8" d="M 291.337 414.362 L 306.117 406.432 C 308.297 405.262 310.457 403.992 312.677 402.912 C 315.247 401.652 315.307 401.162 316.857 403.192 C 323.347 411.682 331.757 408.582 339.937 404.392 C 359.245 394.588 379.899 387.704 401.227 383.962 C 408.757 382.612 405.567 371.132 398.067 372.482 C 376.336 376.364 355.279 383.363 335.547 393.262 C 333.474 394.483 331.315 395.553 329.087 396.462 C 326.667 397.252 327.027 396.992 325.737 395.012 C 323.344 391.243 318.97 389.218 314.547 389.832 C 309.637 390.402 305.187 393.392 300.927 395.682 L 285.327 404.052 C 278.577 407.672 284.577 417.952 291.327 414.332 L 291.337 414.362 Z" style="fill: rgb(255, 255, 255);"></path>
      <path class="cls-8" d="M 309.639 453.337 C 318.359 448.077 327.379 442.707 337.909 444.877 C 342.639 445.877 346.909 446.667 351.779 445.697 C 356.249 444.797 360.439 442.577 364.309 440.237 C 372.569 435.237 380.559 430.617 389.929 427.917 C 399.751 425.128 409.995 424.133 420.169 424.977 C 427.819 425.557 427.779 413.657 420.169 413.077 C 399.169 411.477 378.859 417.077 361.169 428.187 C 357.309 430.607 353.269 433.507 348.659 434.187 C 343.659 434.937 338.599 432.487 333.569 432.327 C 322.689 431.987 312.699 437.617 303.679 443.057 C 297.129 447.057 303.099 457.307 309.679 453.337 L 309.639 453.337 Z" style="fill: rgb(255, 255, 255);"></path>
      <path class="cls-8" d="M388.2,600.48c2.79-7.86,17.41-7.64,23.93-8.39l39.34-4.51c19-2.18,40.85-3.65,52.68-20.91,4.35-6.33-6-12.29-10.28-6-5.43,7.92-15.13,10.83-24.1,12.57-11.84,2.29-24,3.1-36,4.47s-24.34,2.09-36.22,4.36c-9.17,1.75-17.56,6-20.83,15.26-2.56,7.23,8.94,10.35,11.48,3.16Z" transform="translate(0 0)" style="fill: rgb(255, 255, 255);"></path>
      <path class="cls-8" d="M 359.131 567.475 C 359.901 561.215 360.741 552.555 366.441 548.655 C 368.341 547.355 371.351 546.255 373.631 547.245 C 376.201 548.355 377.721 552.005 379.791 553.805 C 384.501 557.915 390.551 557.755 395.941 555.175 C 399.811 553.325 404.341 548.575 408.841 548.845 C 411.841 549.025 414.581 551.065 417.731 551.205 C 421.111 551.271 424.457 550.527 427.491 549.035 C 434.491 545.885 439.741 541.445 447.491 540.155 C 461.131 537.875 477.231 538.075 484.621 523.975 C 488.171 517.195 477.901 511.175 474.341 517.975 C 470.781 524.775 463.101 526.335 456.201 527.215 C 448.291 528.215 440.411 528.625 433.121 532.165 C 427.181 535.055 422.061 540.795 415.121 538.425 C 408.541 536.175 403.441 536.945 397.411 540.425 C 394.971 541.835 392.571 543.995 389.881 544.905 C 387.521 545.705 387.121 544.455 385.581 542.535 C 381.411 537.335 376.201 534.405 369.381 535.215 C 352.991 537.165 348.881 553.715 347.171 567.485 C 346.231 575.065 358.171 574.995 359.081 567.485 L 359.131 567.475 Z" style="fill: rgb(255, 255, 255);"></path>
      <path class="cls-8" d="M 321.212 478.154 C 324.002 470.294 338.622 470.514 345.142 469.764 L 384.482 465.254 C 403.482 463.074 425.332 461.604 437.162 444.344 C 441.512 438.014 431.162 432.054 426.882 438.344 C 421.452 446.264 411.752 449.174 402.782 450.914 C 390.942 453.204 378.782 454.014 366.782 455.384 C 354.782 456.754 342.442 457.474 330.562 459.744 C 321.392 461.494 313.002 465.744 309.732 475.004 C 307.172 482.234 318.672 485.354 321.212 478.164 L 321.212 478.154 Z" style="fill: rgb(255, 255, 255);"></path>
      <path class="cls-8" d="M 340.85 516.301 L 355.63 508.371 C 357.81 507.201 359.97 505.931 362.19 504.851 C 364.76 503.591 364.82 503.101 366.37 505.131 C 372.86 513.621 381.27 510.521 389.45 506.331 C 408.758 496.527 429.412 489.643 450.74 485.901 C 458.27 484.551 455.08 473.071 447.58 474.421 C 425.849 478.303 404.792 485.302 385.06 495.201 C 382.987 496.422 380.828 497.492 378.6 498.401 C 376.18 499.191 376.54 498.931 375.25 496.951 C 372.857 493.182 368.483 491.157 364.06 491.771 C 359.15 492.341 354.7 495.331 350.44 497.621 L 334.84 505.991 C 328.09 509.611 334.09 519.891 340.84 516.271 L 340.85 516.301 Z" style="fill: rgb(255, 255, 255);"></path>
    </g>
  </g>
</svg>
