<svg viewBox="0 0 500 500" xmlns="http://www.w3.org/2000/svg">
  <defs></defs>
  <title>beeker</title>
  <path d="M 500.722 447.682 C 485.067 467.118 467.175 484.676 447.437 499.965 L 57.927 499.965 C 35.349 482.477 15.186 462.019 -1.975 439.177 L -1.975 57.135 C 14.618 35.049 34.017 15.193 55.692 -1.906 L 449.672 -1.906 C 468.527 12.968 485.66 29.93 500.722 48.63 Z" style="fill: rgb(51, 62, 81); stroke: rgb(51, 62, 81);"></path>
  <path class="cls-2" d="M 256.649 88.087 C 149.76 88.087 63.115 174.732 63.115 281.634 C 63.115 388.538 149.76 475.153 256.649 475.153 C 363.537 475.153 450.181 388.509 450.181 281.634 C 450.181 174.76 363.509 88.087 256.649 88.087 Z M 256.649 450.472 C 163.422 450.472 87.796 374.875 87.796 281.634 C 87.796 188.394 163.422 112.77 256.649 112.77 C 349.874 112.77 425.499 188.366 425.499 281.634 C 425.499 374.903 349.931 450.472 256.649 450.472 Z" style="fill: rgb(255, 255, 255);"></path>
  <path class="cls-3" d="M 373.756 307.66 C 333.624 352.422 319.733 313.835 290.404 271.409 C 248.322 210.539 222.518 352.422 170.011 292.225 C 141.821 259.889 124.763 270.751 114.987 287.737 C 118.194 363.197 180.373 423.388 256.62 423.388 C 334.925 423.388 398.416 359.919 398.416 281.634 C 398.409 273.418 397.691 265.217 396.272 257.124 C 393.415 273.459 387.254 292.603 373.756 307.66 Z" style="fill: rgb(255, 182, 0);"></path>
  <rect class="cls-2" x="173.099" y="32.142" width="158.983" height="80.628" style="fill: rgb(255, 255, 255);"></rect>
  <ellipse class="cls-2" cx="252.589" cy="32.142" rx="117.308" ry="22.767" style="fill: rgb(255, 255, 255);"></ellipse>
</svg>
